<svg width="41" height="41" viewBox="0 0 41 41" fill="none" xmlns="http://www.w3.org/2000/svg">
<circle cx="20.5" cy="20.5" r="20.5" fill="#424242"/>
<path fill-rule="evenodd" clip-rule="evenodd" d="M27 32H15C13.3428 32 12 30.6864 12 29.0652V18.5C12 16.8794 13.3428 15.5652 15 15.5652H17.4C17.7318 15.5652 18 15.8282 18 16.1522C18 16.4762 17.7318 16.7391 17.4 16.7391H15C14.0064 16.7391 13.2 17.528 13.2 18.5V29.0652C13.2 30.0378 14.0064 30.8261 15 30.8261H27C27.9942 30.8261 28.8 30.0378 28.8 29.0652V18.5C28.8 17.528 27.9942 16.7391 27 16.7391H24.6C24.2682 16.7391 24 16.4762 24 16.1522C24 15.8282 24.2682 15.5652 24.6 15.5652H27C28.6572 15.5652 30 16.8794 30 18.5V29.0652C30 30.6864 28.6572 32 27 32ZM25.4004 10.7023L21.6 6.9845V22.0217C21.6 22.3463 21.3318 22.6087 21 22.6087C20.6682 22.6087 20.4 22.3463 20.4 22.0217V6.9845L16.5996 10.7023C16.371 10.9259 16.0002 10.9259 15.771 10.7023C15.5424 10.4787 15.5424 10.1153 15.771 9.8917L20.514 5.2518C20.5332 5.22422 20.5458 5.19252 20.571 5.16728C20.688 5.05341 20.8416 4.99883 20.994 5.00117C20.9964 5.00117 20.9976 5 21 5C21.0024 5 21.0042 5.00117 21.006 5.00117C21.1596 4.99941 21.3126 5.05341 21.429 5.16728C21.4536 5.19193 21.465 5.22246 21.4836 5.24946L26.229 9.8917C26.4576 10.1153 26.4576 10.4787 26.229 10.7023C25.9998 10.9259 25.629 10.9259 25.4004 10.7023Z" fill="#E8E8E8"/>
</svg>
